<?xml version="1.0" encoding="utf-8"?>
<svg xmlns="http://www.w3.org/2000/svg" xmlns:xlink="http://www.w3.org/1999/xlink" x="0px" y="0px" viewBox="0 0 381 100" style="enable-background:new 0 0 381 100;">
  <path d="M46.1567 0.0575941C40.5752 0.337084 36.1197 0.854964 31.278 1.76742C20.7724 3.75673 10.4477 7.48053 1.23278 12.61C0.591596 12.9717 0.197021 13.3909 0.0737166 13.843C-0.049588 14.2705 0.0326151 18.0847 0.205241 20.5508C1.34786 36.6708 6.2225 52.051 14.5908 65.9269C22.6796 79.3589 33.9989 90.8755 47.2172 99.1369C48.6393 100.025 48.9927 100.132 49.3544 99.7699C49.4695 99.6548 49.5682 99.4657 49.5682 99.3507C49.5682 99.2438 49.2805 98.3396 48.9188 97.3531C46.3869 90.3412 44.488 83.2964 43.3207 76.6133C43.1399 75.5529 42.9344 74.3938 42.8686 74.0486C42.6796 72.9881 42.4412 72.6264 40.9451 71.0646C36.7609 66.716 32.7741 61.4879 29.5599 56.1447L28.6968 54.7062L29.3709 54.3938C32.1658 53.095 36.3088 51.7304 39.523 51.0481C40.1724 50.9084 40.8135 50.744 40.9533 50.67C41.3643 50.4563 41.4876 50.0288 41.5451 48.6232C41.7178 44.7761 42.2521 39.6712 42.9508 35.1172C43.2139 33.4403 43.2303 33.2594 43.1152 32.9964C42.9344 32.5607 42.7207 32.5114 41.4712 32.6758C35.2977 33.4649 28.7626 35.2487 23.329 37.6162C22.548 37.9614 21.8329 38.2574 21.7342 38.282C21.5863 38.3149 21.5369 38.2163 21.2574 37.2627C20.1724 33.6211 19.1366 28.7218 18.5365 24.4061L18.4954 24.1102L19.9175 23.5512C27.6035 20.5179 36.2102 18.5533 44.225 18.0025C46.2636 17.8628 46.4362 17.8463 46.6828 17.723C47.0199 17.5422 47.1267 17.3449 47.5542 15.9885C48.8201 11.9853 50.8341 6.86401 52.807 2.63877C53.5879 0.961828 53.6537 0.665897 53.3166 0.271322L53.1193 0.0411535L49.8805 0.0329332C48.105 0.0329332 46.428 0.0411535 46.1567 0.0575941Z" fill="#0078FF"/>
  <path d="M61.0771 0.715216C60.7729 0.8303 60.5181 1.20843 59.8276 2.58123C57.9369 6.35435 55.9805 10.9988 54.3857 15.4789C53.6048 17.6901 53.687 17.8463 55.7832 18.0025C63.9542 18.5779 71.5169 20.1809 78.874 22.8936C80.2057 23.3868 81.9731 24.0773 82.0224 24.1184C82.0553 24.1595 81.6443 26.8804 81.373 28.4012C78.8987 42.2195 72.8403 55.3063 63.798 66.3379C62.1621 68.3354 60.7072 69.922 58.3233 72.3059C55.8572 74.7802 54.1145 76.3585 51.9114 78.1423C50.9825 78.8903 50.703 79.1534 50.6044 79.4164C50.4236 79.8685 50.4318 80.0576 50.7606 81.4797C51.6648 85.4008 53.0458 90.1028 54.4351 94.0403C54.7968 95.0597 55.142 96.0461 55.216 96.2352C55.4462 96.901 55.9558 97.1969 56.4819 96.975C56.9998 96.753 60.2961 94.3527 62.6307 92.4785C65.6229 90.0946 68.0314 87.9244 71.0236 84.924C74.6077 81.34 77.3697 78.1587 80.2797 74.2705C92.9307 57.4107 99.9673 37.2545 100.51 16.3502C100.567 13.9252 100.526 13.6375 100.05 13.1608C99.6961 12.8155 97.7561 11.7469 94.9036 10.3412C85.0557 5.48299 74.5748 2.30174 63.6993 0.863182C62.1868 0.665894 61.3401 0.616573 61.0771 0.715216Z" fill="#0078FF"/>
  <path d="M125.047 14.1061L124.866 14.2294V31.229C124.866 46.9462 124.874 48.245 125.006 48.3437C125.113 48.4341 125.828 48.4587 128.869 48.4587C132.47 48.4587 132.61 48.4505 132.725 48.3026C132.823 48.1628 132.84 47.1928 132.84 42.1538V36.1776L138.389 36.1529C143.904 36.1283 143.937 36.1283 144.11 35.9557C144.291 35.7666 146.65 29.3794 146.65 29.0588C146.65 28.9602 146.584 28.8204 146.502 28.7464C146.362 28.6149 145.762 28.6067 139.597 28.6067H132.84V25.1131V21.6194L141.019 21.603L149.198 21.5783L149.387 21.3728C149.527 21.2331 149.987 20.0658 150.793 17.8463C151.451 16.0214 151.993 14.4678 151.993 14.3856C151.993 14.3116 151.927 14.1883 151.845 14.1143C151.706 13.9828 150.662 13.9746 138.463 13.9746C126.617 13.9746 125.211 13.991 125.047 14.1061Z" fill="#0078FF"/>
  <path d="M160.173 14.1553C160 14.3115 158.849 17.3941 153.917 30.9905C150.588 40.1479 147.85 47.7681 147.826 47.9325C147.744 48.508 147.678 48.4997 151.854 48.4997C156.046 48.4997 155.997 48.508 156.219 47.9161C156.293 47.7188 156.843 46.1323 157.452 44.3896L158.545 41.2248L165.245 41.2001L171.952 41.1837L172.117 41.6522C173.827 46.6255 174.386 48.1545 174.525 48.2942C174.681 48.4504 174.813 48.4586 178.553 48.4833C181.956 48.4997 182.45 48.4915 182.622 48.3764C182.737 48.3025 182.82 48.1709 182.82 48.0641C182.82 47.9654 180.082 40.337 176.737 31.1138C171.878 17.7312 170.612 14.3033 170.44 14.1553L170.234 13.9745H165.31H160.386L160.173 14.1553ZM167.316 27.6859C168.426 30.9001 169.338 33.5799 169.338 33.621C169.338 33.6785 167.9 33.7032 165.228 33.7032H161.126L161.891 31.4591C162.68 29.182 164.973 22.54 165.154 22.0468C165.203 21.8988 165.261 21.7838 165.269 21.8002C165.286 21.8166 166.206 24.4636 167.316 27.6859Z" fill="#0078FF"/>
  <path d="M186.362 14.1883L186.189 14.4102V31.2372C186.189 47.686 186.189 48.0724 186.346 48.2615L186.502 48.4587H190.176C193.719 48.4587 193.851 48.4505 193.966 48.3026C194.065 48.1628 194.081 46.601 194.081 37.7806C194.081 29.0177 194.097 27.4394 194.196 27.5381C194.254 27.6038 196.999 32.2483 200.287 37.8545C203.575 43.4608 206.354 48.1381 206.461 48.2532L206.658 48.4587H210.982H215.306L215.462 48.2615C215.618 48.0724 215.618 47.686 215.618 31.2372V14.4102L215.446 14.1883L215.281 13.9746H211.681C208.565 13.9746 208.072 13.991 207.907 14.1061L207.727 14.2294V24.5623C207.718 32.7004 207.702 34.8706 207.62 34.7637C207.562 34.6897 204.825 30.037 201.52 24.4226C196.983 16.6955 195.462 14.1801 195.298 14.0896C195.117 13.991 194.319 13.9746 190.801 13.9746H186.526L186.362 14.1883Z" fill="#0078FF"/>
  <path d="M222.606 14.139C222.45 14.2951 222.442 14.4102 222.442 17.7806C222.442 21.2166 222.442 21.266 222.614 21.4222C222.779 21.5701 223.058 21.5783 229.873 21.6194C236.786 21.6688 236.967 21.6688 237.616 21.8414C239.507 22.351 240.905 23.132 242.146 24.3815C243.946 26.1899 244.883 28.5409 244.883 31.2454C244.883 35.52 242.384 39.03 238.389 40.3617C237.156 40.781 236.367 40.855 233.276 40.855H230.498L230.481 32.9963C230.457 25.3268 230.457 25.1377 230.3 25.0226C230.078 24.8665 228.27 24.8665 227.522 25.0309C226.264 25.2939 225.302 25.8282 224.324 26.8065C223.732 27.3901 223.552 27.6367 223.231 28.2861C223.025 28.7053 222.771 29.3547 222.672 29.7164L222.483 30.3741L222.458 39.2684L222.434 48.1546L222.664 48.3354L222.886 48.5081L229.881 48.4834C236.03 48.4505 236.992 48.4341 237.896 48.3025C245.853 47.1681 251.55 41.6194 252.742 33.8513C252.947 32.5524 252.947 29.8973 252.742 28.6067C252.043 24.0773 249.906 20.3617 246.445 17.6573C243.88 15.6597 240.551 14.3856 237.074 14.065C236.499 14.0074 233.515 13.9746 229.454 13.9746C222.877 13.9746 222.771 13.9746 222.606 14.139Z" fill="#0078FF"/>
  <path d="M258.134 14.1062L257.953 14.2295V25.1542C257.953 36.9668 257.953 36.9257 258.397 38.7588C259.778 44.4226 264.258 48.2204 270.448 48.9931C271.459 49.1164 273.909 49.0918 274.986 48.952C281.291 48.1218 285.812 44.0034 286.963 38.0355C287.275 36.4243 287.308 34.9528 287.283 24.4062C287.259 14.624 287.25 14.3117 287.102 14.1473C286.946 13.9746 286.905 13.9746 283.255 13.9746C279.679 13.9746 279.564 13.9828 279.408 14.139C279.244 14.3034 279.244 14.4103 279.244 24.883C279.244 31.714 279.211 35.6598 279.162 36.005C278.75 38.5944 277.106 40.4769 274.599 41.2332C273.933 41.4304 273.728 41.4551 272.626 41.4551C271.615 41.4551 271.278 41.4222 270.736 41.2825C268.385 40.6413 266.782 39.0219 266.157 36.6627L265.976 35.9639L265.951 25.1131L265.927 14.2623L265.754 14.1144C265.59 13.9828 265.286 13.9746 261.948 13.9746C258.8 13.9746 258.298 13.9911 258.134 14.1062Z" fill="#0078FF"/>
  <path d="M294.286 14.1389C294.122 14.3033 294.122 14.4102 294.122 31.196V48.097L294.328 48.3025L294.525 48.4998L306.568 48.4833C318.002 48.4587 318.619 48.4504 318.758 48.3107C318.898 48.1792 318.906 47.9161 318.906 44.6855C318.906 41.3728 318.898 41.1919 318.75 41.0275L318.594 40.8549H310.382H302.178V37.8545V34.8541H309.889C316.728 34.8541 317.616 34.8376 317.78 34.7225L317.961 34.5992V31.122C317.961 28.2531 317.945 27.6202 317.846 27.4887C317.731 27.3325 317.542 27.3325 309.954 27.3078L302.178 27.2914V24.4554V21.6194L310.398 21.6029C318.158 21.5783 318.619 21.57 318.758 21.4303C318.898 21.2988 318.906 21.0357 318.906 17.8051C318.906 14.4924 318.898 14.3115 318.75 14.1471L318.594 13.9745H306.518C294.558 13.9745 294.451 13.9745 294.286 14.1389Z" fill="#0078FF"/>
  <path d="M325.853 14.1389C325.688 14.3033 325.688 14.4102 325.688 31.2289V48.1627L325.902 48.3271L326.124 48.4998H337.937H349.749L349.971 48.3271L350.185 48.1627V44.6691C350.185 41.2905 350.177 41.1755 350.021 41.0193C349.856 40.8549 349.749 40.8549 341.8 40.8549H333.744L333.728 27.5873C333.703 14.6732 333.695 14.3197 333.547 14.1471C333.391 13.9745 333.35 13.9745 329.7 13.9745C326.124 13.9745 326.009 13.9827 325.853 14.1389Z" fill="#0078FF"/>
  <path d="M132.265 60.1398C131.131 60.2713 130.564 60.3699 129.89 60.5508C126.725 61.3975 124.596 63.4279 123.905 66.2228C123.7 67.0777 123.724 68.8944 123.946 69.7329C124.538 71.9113 126.166 73.3416 129.207 74.3609C130.037 74.6404 131.624 75.0432 134.69 75.7501C137.674 76.4406 138.841 76.9996 139.359 77.9614C139.515 78.2491 139.54 78.43 139.54 79.2027C139.54 80.0494 139.524 80.1398 139.277 80.6577C138.809 81.6441 137.88 82.3182 136.458 82.7127C135.825 82.8854 135.594 82.9018 133.991 82.8936C132.364 82.8936 132.158 82.8689 131.435 82.6799C130.522 82.4332 129.684 82.0304 129.076 81.5455C128.377 80.9865 127.686 79.9178 127.366 78.8903L127.218 78.4217H125.13H123.042L123.1 78.767C123.297 79.9507 123.856 81.381 124.522 82.4086C125.927 84.587 128.015 85.9269 130.991 86.5598C131.632 86.6996 132.208 86.7489 133.622 86.7818C135.216 86.8229 135.553 86.8064 136.449 86.6503C138.735 86.2639 140.461 85.4419 141.768 84.1431C143.223 82.6716 143.839 80.9618 143.749 78.6272C143.7 77.386 143.568 76.8352 143.108 75.8817C142.869 75.3967 142.615 75.0432 142.22 74.6404C140.79 73.1854 138.751 72.3552 133.95 71.2701C131.353 70.6864 130.375 70.4069 129.511 70.0041C128.221 69.3876 127.859 68.8451 127.925 67.5874C127.95 66.9709 127.999 66.7653 128.221 66.3214C128.698 65.3597 129.643 64.6527 130.966 64.2828C132.216 63.9376 134.189 63.9211 135.537 64.2499C137.082 64.6198 138.34 65.5898 138.965 66.8886L139.294 67.5709H141.373C143.083 67.5709 143.445 67.5545 143.445 67.4558C143.445 67.2503 143.026 65.894 142.787 65.335C142.458 64.5376 141.735 63.4937 141.044 62.8114C139.326 61.1016 136.967 60.2384 133.769 60.1398C133.104 60.1233 132.421 60.1233 132.265 60.1398Z" fill="#0078FF"/>
  <path d="M183.946 60.1809C183.058 60.2713 181.504 60.6084 180.723 60.8879C177.295 62.1209 174.55 64.6856 173.12 67.9655C172.026 70.481 171.73 73.5636 172.298 76.3667C173.35 81.5455 177.246 85.4173 182.573 86.5763C183.337 86.7407 183.658 86.7654 185.409 86.7654C187.16 86.7654 187.48 86.7407 188.245 86.5763C190.127 86.1653 191.878 85.409 193.317 84.3979C194.238 83.7485 195.709 82.2771 196.358 81.3564C198.841 77.8381 199.49 73.0786 198.06 68.9602C196.013 63.0745 190.366 59.5644 183.946 60.1809ZM187.39 64.2746C189.371 64.6856 191.254 65.8118 192.454 67.3244C193.399 68.4999 194.057 69.8727 194.369 71.2701C194.558 72.1415 194.624 73.9746 194.492 74.9117C193.942 78.9643 191.081 81.9976 187.119 82.7457C186.025 82.9512 184.044 82.869 182.943 82.5812C178.216 81.34 175.405 76.6051 176.375 71.5085C177.008 68.1628 179.342 65.5077 182.532 64.5048C183.099 64.324 183.576 64.2335 184.669 64.0856C185.146 64.0198 186.658 64.1267 187.39 64.2746Z" fill="#0078FF"/>
  <path d="M257.172 60.148C253.547 60.4521 250.686 62.1455 249.429 64.7349C248.574 66.5022 248.508 68.9848 249.264 70.6535C250.267 72.8483 252.478 74.0896 257.378 75.2075C261.636 76.1858 262.589 76.4653 263.461 77.0325C264.307 77.5832 264.677 78.397 264.587 79.5232C264.488 80.6905 263.748 81.7262 262.614 82.2852C261.726 82.7209 260.945 82.8771 259.433 82.9182C255.577 83.0415 253.374 81.8085 252.396 78.9971L252.207 78.4628L250.119 78.4381L248.031 78.4217L248.097 78.808C248.327 80.0246 248.829 81.3399 249.453 82.351C249.971 83.1895 251.377 84.5951 252.224 85.113C254.09 86.2721 256.243 86.8064 259.03 86.8064C261.628 86.8064 263.411 86.3789 265.228 85.335C266.017 84.8828 267.39 83.5512 267.809 82.836C268.541 81.5865 268.911 79.7205 268.73 78.1422C268.557 76.605 268.155 75.6597 267.275 74.7225C265.804 73.1607 263.798 72.3633 258.208 71.1056C254.451 70.2589 253.317 69.6917 252.963 68.4833C252.717 67.6284 252.955 66.5598 253.58 65.7295C254.525 64.4801 256.679 63.8306 259.137 64.0444C261.307 64.2334 262.787 65.0062 263.707 66.4283C263.888 66.7078 264.077 67.0859 264.135 67.2585L264.225 67.5709H266.346H268.459L268.335 67.0119C267.661 63.9868 265.557 61.7016 262.598 60.7563C260.978 60.2384 258.882 60 257.172 60.148Z" fill="#0078FF"/>
  <path d="M309.372 60.1726C306.166 60.5014 303.445 61.7756 301.225 63.9868C299.696 65.524 298.735 67.0777 298.077 69.1163C297.559 70.6782 297.452 71.4509 297.452 73.4895C297.452 75.5199 297.559 76.3009 298.069 77.8627C298.71 79.8274 299.746 81.4961 301.233 82.984C302.327 84.0773 303.289 84.776 304.604 85.4172C306.618 86.3954 307.982 86.7242 310.399 86.7817C311.887 86.8228 312.208 86.8064 313.153 86.642C317.411 85.9186 320.905 83.3539 322.771 79.5808C325.294 74.4924 324.382 68.2039 320.527 64.1924C318.471 62.0469 315.874 60.7069 312.89 60.263C312.027 60.1315 310.235 60.0904 309.372 60.1726ZM312.643 64.2417C315.175 64.776 317.354 66.2885 318.587 68.3929C319.063 69.1985 319.409 70.0452 319.663 71.0152C319.951 72.0838 320.025 74.1471 319.811 75.2569C319.088 79.1615 316.433 81.9318 312.693 82.6963C311.698 82.9018 309.98 82.9182 309.018 82.7374C306.404 82.2359 304.185 80.7152 302.902 78.5121C300.732 74.8212 301.225 69.9219 304.069 66.8886C304.744 66.1652 305.492 65.6062 306.453 65.113C307.596 64.5294 308.303 64.3239 310.029 64.0855C310.473 64.0197 312.035 64.1184 312.643 64.2417Z" fill="#0078FF"/>
  <path d="M340.386 60.1809C335.775 60.6248 331.829 63.28 329.84 67.2833C329.232 68.5081 328.894 69.4699 328.631 70.7933C328.467 71.5907 328.442 71.9688 328.442 73.4896C328.442 74.9939 328.475 75.3967 328.631 76.1858C329.708 81.5373 333.539 85.4008 338.948 86.5763C339.68 86.7407 340.033 86.7572 341.759 86.7654C343.979 86.7654 344.735 86.6585 346.354 86.0913C349.971 84.8336 352.857 82.088 354.221 78.5944C355.89 74.3363 355.389 69.6096 352.89 65.8447C352.174 64.7596 350.497 63.0909 349.404 62.3675C346.782 60.633 343.625 59.8685 340.386 60.1809ZM343.65 64.2417C346.757 64.8829 349.116 66.8722 350.292 69.8316C351.18 72.0757 351.18 74.9035 350.292 77.1476C349.223 79.8603 346.987 81.8579 344.225 82.5812C343.222 82.8443 341.381 82.9429 340.304 82.7785C336.918 82.2853 334.123 79.9261 333.062 76.6544C332.725 75.6186 332.594 74.7309 332.594 73.4896C332.594 71.6976 332.906 70.3659 333.687 68.8698C335.043 66.2475 337.6 64.5048 340.65 64.1267C341.422 64.028 342.885 64.0856 343.65 64.2417Z" fill="#0078FF"/>
  <path d="M148.87 73.4896V86.3955H150.925H152.98V82.0387V77.682H156.211C157.978 77.682 159.877 77.6409 160.411 77.5998C162.08 77.46 163.42 77.0572 164.694 76.3174C165.623 75.7749 166.864 74.5089 167.39 73.5718C168.952 70.7851 168.862 66.6997 167.177 64.2007C165.894 62.2936 163.889 61.0934 161.324 60.7071C160.65 60.6084 159.441 60.5838 154.69 60.5838H148.87V73.4896ZM160.748 64.6528C162.113 64.9405 163.272 65.7872 163.79 66.8723C164.143 67.6203 164.259 68.1629 164.267 69.0342C164.267 70.9742 163.453 72.3963 161.924 73.1197C160.864 73.6212 160.584 73.654 156.581 73.654H152.98V69.0918V64.5295H156.581C159.433 64.5295 160.288 64.5542 160.748 64.6528Z" fill="#0078FF"/>
  <path d="M204.028 73.4896V86.3955H206.124H208.221V81.5866V76.7778H210.226H212.232L215.915 81.5866L219.598 86.3955H222.129C223.519 86.3955 224.661 86.3791 224.661 86.3626C224.661 86.3462 222.943 84.1349 220.839 81.4551L217.016 76.5722L217.279 76.5065C219.976 75.7995 221.628 74.6405 222.59 72.7662C223.272 71.4346 223.469 70.4974 223.461 68.6396C223.453 67.3573 223.428 67.1107 223.239 66.3791C222.845 64.9159 222.228 63.839 221.233 62.8772C220.115 61.7839 219.022 61.2249 217.14 60.7728C216.63 60.6495 215.824 60.6331 210.3 60.6084L204.028 60.5755V73.4896ZM216.408 64.8008C218.422 65.4748 219.409 66.9298 219.293 69.0507C219.178 71.0482 218.143 72.3141 216.153 72.8895C215.726 73.0129 215.159 73.0375 211.944 73.0622L208.221 73.0868V68.8041V64.5213L211.986 64.5459L215.742 64.5788L216.408 64.8008Z" fill="#0078FF"/>
  <path d="M226.141 62.5566V64.5295H230.086H234.032V75.4625V86.3955H236.087H238.142V75.4625V64.5295H242.129H246.116V62.5566V60.5838H236.128H226.141V62.5566Z" fill="#0078FF"/>
  <path d="M273.818 73.4896V86.3955H279.926C283.65 86.3955 286.305 86.3626 286.724 86.3133C288.385 86.1078 290.103 85.4337 291.139 84.587C292.939 83.1238 293.785 80.7317 293.465 78.0108C293.177 75.4707 291.87 73.6047 289.84 72.8156C289.577 72.7087 289.355 72.6101 289.355 72.5772C289.355 72.5525 289.494 72.4703 289.667 72.3881C290.497 71.9935 291.508 71.0729 291.961 70.3084C292.684 69.0753 292.881 66.8805 292.437 65.146C291.952 63.2471 290.464 61.7428 288.451 61.0852C287.02 60.6249 287.275 60.6413 280.296 60.6084L273.818 60.5755V73.4896ZM286.395 64.7597C287.892 65.2529 288.475 66.1325 288.483 67.8587C288.483 68.615 288.451 68.8452 288.286 69.248C288.048 69.8727 287.497 70.4646 286.913 70.744C286.042 71.1551 285.672 71.1879 281.652 71.1879H277.929V67.8505V64.5213L281.899 64.5459C285.721 64.5788 285.878 64.5788 286.395 64.7597ZM287.086 75.3228C288.204 75.7173 288.738 76.2023 289.125 77.1805C289.371 77.8053 289.396 79.548 289.166 80.1974C288.738 81.4304 287.793 82.1045 286.165 82.3593C285.804 82.4169 284.127 82.4498 281.759 82.4498H277.929V78.7506V75.0433L282.187 75.0679L286.437 75.0926L287.086 75.3228Z" fill="#0078FF"/>
  <path d="M360.46 73.4896V86.3955H362.515H364.57V80.2714C364.57 76.9011 364.595 74.1473 364.636 74.1555C364.669 74.1555 367.127 76.9093 370.102 80.2796L375.511 86.3955H378.142H380.772L378.767 84.1103C377.665 82.8608 375.067 79.9097 372.996 77.5587C370.933 75.2077 369.223 73.243 369.198 73.1855C369.182 73.1362 371.615 70.3248 374.615 66.938C377.616 63.5595 380.098 60.7399 380.131 60.6824C380.189 60.6084 379.663 60.5838 377.616 60.5838H375.043L369.823 66.4695L364.611 72.3552L364.587 66.4695L364.57 60.5838H362.515H360.46V73.4896Z" fill="#0078FF"/>
</svg>