<?xml version="1.0" encoding="utf-8"?>
<svg xmlns="http://www.w3.org/2000/svg" xmlns:xlink="http://www.w3.org/1999/xlink" x="0px" y="0px" viewBox="0 0 569 100" style="enable-background:new 0 0 569 100;">
  <path d="M77.8909 23.5893C77.8909 37.2803 69.4728 52.174 40.8881 52.174H27.7521L23.1267 78.8159H0L13.876 0H46.2535C62.4422 0 77.8909 5.08789 77.8909 23.5893ZM53.099 24.6069C53.099 16.9287 46.901 16.0962 42.3682 16.0962H34.3201L30.6198 37.0027H38.7604C49.3062 37.0027 53.099 30.7124 53.099 24.6069Z" fill="#161C36"/>
  <path d="M122.756 22.0167C124.189 21.9666 125.622 22.1223 127.011 22.4793L123.404 43.8484C121.051 43.2171 118.624 42.906 116.188 42.9234C112.944 42.6183 109.69 43.3992 106.937 45.1435C103.855 48.2349 102.012 52.3487 101.757 56.7069L97.8717 78.8161H75.9475L85.9383 22.0167H107.03L103.7 40.5181C105.457 32.8401 111.008 22.0167 122.756 22.0167Z" fill="#161C36"/>
  <path d="M127.013 53.654C126.787 49.3603 127.483 45.068 129.053 41.0651C130.622 37.0622 133.03 33.4413 136.113 30.4451C139.197 27.4489 142.885 25.1468 146.933 23.6931C150.979 22.2394 155.289 21.6679 159.575 22.0166C170.953 22.0166 187.327 26.1794 187.327 47.0861C187.538 51.388 186.828 55.6855 185.25 59.6925C183.669 63.6996 181.255 67.3243 178.165 70.3259C175.077 73.3275 171.384 75.637 167.333 77.1008C163.283 78.5647 158.967 79.1493 154.672 78.8159C143.572 78.8159 127.013 74.5606 127.013 53.654ZM165.958 46.2534C165.958 38.0203 162.072 36.3552 159.204 36.3552C151.435 36.3552 148.567 47.7335 148.567 54.8565C148.567 61.9796 152.453 64.7548 155.413 64.7548C163.09 64.7548 165.958 53.1914 165.958 46.2534Z" fill="#161C36"/>
  <path d="M201.11 22.0167H222.664L220.998 31.2675C222.651 28.1732 225.188 25.641 228.286 23.9935C231.383 22.3461 234.9 21.658 238.39 22.0167C245.513 22.0167 257.354 26.5496 257.354 45.236C257.354 58.6494 250.416 78.7235 229.602 78.7235C225.901 78.7235 217.205 76.8733 214.986 72.248L209.99 100H187.234L201.11 22.0167ZM234.32 46.2535C234.32 37.9279 230.527 36.2628 227.659 36.2628C222.756 36.2628 219.519 40.8881 218.409 46.346L217.298 51.7114C216.095 57.5393 217.298 65.31 223.681 65.31C231.267 65.5875 234.32 53.6541 234.32 46.2535Z" fill="#161C36"/>
  <path d="M275.671 0H298.058L292.507 31.9149C294.36 28.8504 296.962 26.3081 300.07 24.5278C303.178 22.7476 306.687 21.7879 310.269 21.7391C312.494 21.5886 314.725 21.9404 316.797 22.768C318.869 23.5959 320.73 24.8786 322.239 26.5214C323.749 28.1644 324.869 30.1254 325.52 32.2598C326.17 34.3942 326.332 36.6474 325.995 38.8529C325.959 41.9577 325.649 45.0533 325.07 48.1037L319.519 79.2785H297.133L302.775 46.2535C302.866 45.5472 302.866 44.8321 302.775 44.1258C302.775 39.3155 300.278 37.9279 297.41 37.9279C291.951 37.9279 290.195 42.5531 289.177 48.0112L283.904 78.4458H261.795L275.671 0Z" fill="#161C36"/>
  <path d="M389.454 54.9491H353.099C353.096 56.212 353.353 57.4621 353.852 58.6223C354.351 59.7824 355.083 60.828 356.001 61.6946C356.92 62.5614 358.006 63.2307 359.194 63.6615C360.381 64.0924 361.644 64.2756 362.905 64.1998C364.985 64.2166 367.029 63.6433 368.797 62.5463C370.565 61.4492 371.986 59.8736 372.895 58.0018L387.325 64.7548C384.718 69.3996 380.827 73.1952 376.118 75.6886C371.41 78.182 366.085 79.2676 360.777 78.8159C348.565 78.8159 332.1 74.0055 332.1 53.654C331.836 49.3908 332.489 45.1208 334.016 41.1316C335.542 37.1423 337.905 33.5267 340.948 30.5285C343.991 27.5303 347.64 25.2191 351.651 23.7508C355.661 22.2825 359.94 21.691 364.199 22.0166C377.427 22.0166 391.026 27.2895 391.026 44.4957C391.015 48.0382 390.485 51.5599 389.454 54.9491ZM370.953 41.3506C370.988 40.3287 370.8 39.3111 370.403 38.3691C370.005 37.4271 369.406 36.5831 368.649 35.8962C367.891 35.2092 366.993 34.6957 366.017 34.3916C365.041 34.0873 364.01 33.9998 362.997 34.1351C356.984 34.1351 353.745 38.3904 352.822 44.4032H370.953C371.255 43.414 371.412 42.3854 371.414 41.3506H370.953Z" fill="#161C36"/>
  <path d="M399.63 22.0167H408.881L410.824 10.6384H433.21L431.267 22.0167H444.033L441.536 35.9854H428.77L425.533 54.0242C424.423 60.4997 428.307 62.0723 432.192 62.0723C433.763 62.2089 435.342 62.2089 436.911 62.0723L434.783 76.9659C430.53 78.4136 426.042 79.0414 421.555 78.816C410.547 78.816 399.908 76.1334 403.053 54.5792L406.291 36.0779H397.041L399.63 22.0167Z" fill="#161C36"/>
  <path d="M545.143 78.8161H516.281L500.741 55.3193L519.982 40.8882L545.143 78.8161Z" fill="url(#paint0_linear_3522_1643)"/>
  <path fill-rule="evenodd" clip-rule="evenodd" d="M548.289 26.272L568.455 0H530.805L533.765 4.34783L510.362 21.9242L508.327 23.4043L489.085 37.8354L487.05 39.408L463.645 56.8918L460.777 52.544L440.611 78.816H478.169L475.301 74.3757L498.706 56.8918L500.741 55.3192L519.982 40.8881L522.017 39.408L545.421 21.9242L548.289 26.272Z" fill="url(#paint1_linear_3522_1643)"/>
  <path d="M463.922 0H492.691L508.325 23.4043L489.085 37.8354L463.922 0Z" fill="url(#paint2_linear_3522_1643)"/>
  <defs>
    <linearGradient id="paint0_linear_3522_1643" x1="555.135" y1="71.323" x2="483.811" y2="49.2137" gradientUnits="userSpaceOnUse">
      <stop stop-color="#60C1A0"/>
      <stop offset="1" stop-color="#31A7AF"/>
    </linearGradient>
    <linearGradient id="paint1_linear_3522_1643" x1="501.481" y1="51.0639" x2="396.3" y2="51.0639" gradientUnits="userSpaceOnUse">
      <stop stop-color="#60C1A0"/>
      <stop offset="1" stop-color="#31A7AF"/>
    </linearGradient>
    <linearGradient id="paint2_linear_3522_1643" x1="453.931" y1="7.49306" x2="525.254" y2="29.5096" gradientUnits="userSpaceOnUse">
      <stop stop-color="#60C1A0"/>
      <stop offset="1" stop-color="#31A7AF"/>
    </linearGradient>
  </defs>
</svg>